<svg width="15" height="14" viewBox="0 0 15 14" fill="none" xmlns="http://www.w3.org/2000/svg">
<path fill-rule="evenodd" clip-rule="evenodd" d="M12.1261 2.0939C11.5081 1.47566 10.774 0.985754 9.96597 0.652377C9.15793 0.319 8.29192 0.148739 7.41781 0.151398C3.74943 0.151398 0.763162 3.12274 0.76167 6.77561C0.760047 7.93876 1.06665 9.08158 1.65027 10.0877L0.705872 13.5192L4.23431 12.5981C5.211 13.1272 6.30433 13.4041 7.41513 13.4037H7.41781C11.0859 13.4037 14.0719 10.4321 14.0737 6.77949C14.0759 5.90836 13.9048 5.04549 13.5705 4.24108C13.2361 3.43668 12.7451 2.70679 12.1261 2.0939ZM7.41781 12.2856H7.41543C6.42519 12.2859 5.45296 12.0209 4.59984 11.5182L4.39783 11.3988L2.30404 11.9455L2.86292 9.91376L2.73133 9.70488C2.17764 8.82827 1.88428 7.81244 1.8854 6.77561C1.8854 3.74011 4.36829 1.27035 7.4199 1.27035C8.88379 1.26774 10.2888 1.8467 11.3258 2.87989C12.3629 3.91309 12.9471 5.3159 12.9499 6.77979C12.9487 9.81559 10.467 12.2856 7.41781 12.2856ZM10.4521 8.16222C10.2859 8.07927 9.46744 7.67883 9.31586 7.62363C9.16428 7.56843 9.05238 7.54068 8.94168 7.70658C8.83098 7.87248 8.512 8.24368 8.41503 8.35557C8.31805 8.46747 8.22108 8.4797 8.05487 8.39675C7.88867 8.3138 7.35247 8.13924 6.7172 7.57529C6.22277 7.13636 5.88917 6.59449 5.7922 6.42888C5.69522 6.26328 5.78175 6.17346 5.865 6.09111C5.9399 6.01681 6.0312 5.89775 6.11445 5.80107C6.1977 5.7044 6.22545 5.63517 6.28066 5.52477C6.33586 5.41436 6.30841 5.31769 6.26693 5.23503C6.22545 5.15238 5.89275 4.33748 5.7543 4.00597C5.61913 3.68312 5.48217 3.72698 5.38012 3.72191C5.28314 3.71713 5.17125 3.71594 5.06114 3.71594C4.97697 3.71813 4.89416 3.73765 4.81787 3.77328C4.74157 3.80891 4.67345 3.85988 4.61774 3.92302C4.46526 4.08892 4.03558 4.48996 4.03558 5.30396C4.03558 6.11796 4.63236 6.90571 4.71472 7.01611C4.79707 7.12651 5.88738 8.79838 7.55567 9.51541C7.86545 9.64807 8.18198 9.7644 8.50395 9.86392C8.9023 9.98984 9.26484 9.97224 9.55129 9.92957C9.87086 9.88213 10.536 9.52913 10.6741 9.14242C10.8123 8.75571 10.8126 8.4245 10.7711 8.35557C10.7296 8.28665 10.6186 8.24487 10.4521 8.16222Z" fill="white"/>
</svg>
