<svg width="106" height="66" viewBox="0 0 106 66" fill="none" xmlns="http://www.w3.org/2000/svg">
<path fill-rule="evenodd" clip-rule="evenodd" d="M88.8162 62.5389C81.6975 62.5389 81.7591 51.7349 88.8162 51.7349C95.8274 51.7349 95.9412 62.5389 88.8162 62.5389ZM37.6796 51.7349C41.0954 51.7349 43.0624 54.1452 43.0624 57.7603C43.0624 61.7282 37.3784 64.4164 33.8904 60.9397C31.8319 58.8877 31.9848 55.2661 33.9004 53.3444C34.6036 52.6388 36.3263 51.7349 37.6796 51.7349ZM100.41 44.8785H102.687V49.0339H100.41V44.8785ZM96.8905 44.2551C96.8905 52.1053 96.2964 52.566 102.687 52.566C102.687 55.9657 102.957 55.4748 97.9257 55.4748C97.1969 55.4748 97.3587 55.0435 97.1429 54.3904C96.9827 53.9054 96.8396 53.4969 96.6177 53.0475C95.527 50.8387 92.4827 48.4107 89.6446 48.4107C86.6721 48.4107 85.0928 48.5583 82.7011 50.792C82.1786 51.28 81.4479 52.2589 81.0863 52.9114C80.8247 53.3836 80.6718 53.6893 80.5146 54.2074C80.022 55.8294 81.1317 55.4748 74.9455 55.4748V14.9596H93.1642C95.1492 14.9596 95.7416 17.2706 96.4061 18.7703C97.3012 20.7904 102.688 33.0919 102.688 34.2822V41.5541H99.3751C98.2057 41.5541 96.8905 43.0843 96.8905 44.2551ZM14.6994 5.19433C14.6994 8.81638 13.9764 12.6741 16.3556 12.6741C18.5795 12.6741 18.0123 9.58426 18.0118 8.10318C18.0111 5.92044 17.7082 3.53222 19.8751 3.53222H69.7695C71.0825 3.53222 71.6328 4.71971 71.6328 6.02555V55.4748H46.3751C46.2292 53.7159 44.7957 51.58 43.7353 50.6442C37.6143 45.2436 29.3024 50.4797 29.1916 55.4748C16.7534 55.4748 18.0118 56.6601 18.0118 49.0339C18.0118 43.4356 18.7318 41.762 15.9416 41.762C15.4429 41.762 14.6994 42.5083 14.6994 43.0085V54.0204C14.6994 56.3986 17.068 58.799 19.461 58.799H29.1916C29.2371 60.8483 30.9022 62.7393 32.0335 63.8421C32.6818 64.4741 33.5183 65.0003 34.4479 65.3668C40.3253 67.6833 46.0083 63.2233 46.3751 58.799H80.1212C82.2931 68.1551 94.0661 68.0532 97.0164 60.3798C97.2534 59.763 97.2734 59.2974 97.5116 58.799C99.3597 58.799 101.984 59.1465 103.441 58.517C104.729 57.9607 106 56.5962 106 54.8514V33.4511C106 32.2371 104.179 28.2719 103.586 26.9392L99.6396 17.6029C98.3089 14.4865 97.39 11.4274 92.3361 11.4274H74.9455C74.9455 6.59611 75.6663 3.90088 73.2446 1.49926C72.3357 0.597732 71.0771 0 69.3558 0H20.2895C17.2768 0 14.6994 2.16933 14.6994 5.19433Z" fill="#6B2B8B"/>
<path fill-rule="evenodd" clip-rule="evenodd" d="M80.5349 20.3616H90.6793C91.2686 20.3616 91.3607 20.8007 91.5781 21.3294L94.4632 28.1992C94.8641 29.1381 95.2165 30.1396 95.648 30.9578H80.5349V20.3616ZM77.0154 18.6995V32.6201C77.0154 33.6252 77.6702 34.2822 78.6716 34.2822H98.1325C101.472 34.2822 98.7849 29.6489 98.31 28.4942L93.9974 18.2782C93.6903 17.584 93.3311 17.0372 92.3355 17.0372H78.6714C77.6699 17.0372 77.0154 17.6946 77.0154 18.6995Z" fill="#6B2B8B"/>
<path fill-rule="evenodd" clip-rule="evenodd" d="M4.76179 36.5678C4.76179 37.5946 5.60173 38.4378 6.62509 38.4378H35.1953C37.6133 38.4378 37.7715 34.9057 35.1953 34.9057H6.62509C5.7019 34.9057 4.76179 35.7471 4.76179 36.5678Z" fill="#6B2B8B"/>
<path fill-rule="evenodd" clip-rule="evenodd" d="M0 26.8025C0 27.8839 0.25144 28.8802 1.65619 28.8802H30.4335C32.5166 28.8802 33.6322 25.3481 29.6054 25.3481H2.27734C1.28106 25.3481 0 25.9178 0 26.8025Z" fill="#6B2B8B"/>
<path fill-rule="evenodd" clip-rule="evenodd" d="M7.86723 17.6606C7.86723 18.6657 8.52205 19.3227 9.52341 19.3227H38.5077C40.7301 19.3227 40.7301 15.9983 38.5077 15.9983H9.52341C8.52188 15.9983 7.86723 16.6557 7.86723 17.6606Z" fill="#6B2B8B"/>
<path fill-rule="evenodd" clip-rule="evenodd" d="M86.3319 57.1369C86.3319 60.4842 91.3006 60.3256 91.3006 57.1369C91.3006 53.955 86.3319 53.8479 86.3319 57.1369Z" fill="#6B2B8B"/>
<path fill-rule="evenodd" clip-rule="evenodd" d="M37.6796 59.6303C41.1894 59.6303 40.7321 54.6438 37.8867 54.6438C34.3473 54.6438 34.6287 59.6303 37.6796 59.6303Z" fill="#6B2B8B"/>
</svg>
