<svg width="62" height="84" viewBox="0 0 62 84" fill="none" xmlns="http://www.w3.org/2000/svg">
<path fill-rule="evenodd" clip-rule="evenodd" d="M30.0243 13.1256C32.5746 13.1256 33.3486 13.0814 35.9321 13.7453C42.6043 15.461 47.7519 21.1562 49.3082 28.0168C50.7061 34.179 48.4922 40.8894 44.1755 45.2418L41.6718 47.317C35.2808 51.7763 26.9986 51.8303 20.5304 47.4491C15.4503 44.008 12.0426 37.6504 12.3852 31.4769C12.6234 27.1785 13.4829 23.9436 16.23 20.4136C19.3053 16.4618 24.7796 13.1256 30.0248 13.1256H30.0243ZM30.5806 0.00102857H30.9605C31.3874 0.0936002 31.8552 0.500915 32.4708 1.31349C32.9294 1.9188 33.3354 2.22172 33.8446 2.88463C34.3226 3.50692 34.7828 3.82218 35.2435 4.43058C36.8392 6.53504 36.9706 5.83715 40.5326 4.33698C44.9711 2.46755 44.7113 2.14715 45.6628 5.43447C47.8276 12.9148 46.4967 10.6678 51.0404 11.1811C52.1223 11.3035 53.4844 11.2068 54.6409 11.3333C55.9789 11.4794 56.0249 12.1968 55.7979 13.4527C55.5873 14.6176 54.8157 18.8388 54.8157 19.8525C54.8157 21.0359 61.4721 23.1588 61.9 24.5562C62.0872 25.1682 61.5247 25.7817 61.0385 26.4395C60.5947 27.0402 60.2793 27.5653 59.8263 28.1731C56.9432 32.0401 57.2131 31.5299 58.6856 33.514C63.3025 39.7359 62.7518 38.6198 59.1509 40.7824C55.5259 42.9594 54.7186 42.4482 55.1143 44.6488C55.4538 46.5378 55.7488 48.3409 56.144 50.1939C56.5802 52.2397 54.9645 52.1739 52.0379 52.1672C51.2741 52.1656 51.0813 52.2531 50.5512 52.3122C48.641 52.5267 47.7289 51.7033 47.213 53.8762C46.7943 55.6376 46.2769 57.1974 45.8479 58.9018C45.196 61.4917 44.3882 60.637 42.0936 59.7195C38.4972 58.2815 37.4839 57.1815 36.3299 58.515L32.2116 63.2326C30.7703 64.8063 29.8771 62.5661 28.1898 60.9075C24.7162 57.4931 26.7163 57.1018 21.5381 59.3862C16.8001 61.4763 17.3144 61.8224 15.9631 56.9645C15.5648 55.5332 15.1267 53.0548 14.2529 52.7787C14.2253 52.7699 14.1701 52.7427 14.1348 52.7334C13.5207 52.5699 12.9154 52.7278 12.1275 52.6198L7.50451 52.3482C5.44661 52.1908 6.07855 51.1664 6.3531 49.5258C7.30511 43.8465 7.94216 43.7488 5.61379 42.6015L1.80988 40.5217C-0.460715 39.3419 -0.331361 39.1614 0.926897 37.3403C4.70269 31.8765 5.10916 32.7498 3.34474 30.2822C-0.118669 25.4387 -1.18008 25.1368 1.53532 23.6788L3.43779 22.6394C7.90177 20.3205 7.1461 20.7715 6.70077 18.0468C5.49006 10.6432 4.72366 12.1022 9.98677 11.5082C15.4334 10.8936 13.8894 12.814 15.6134 6.8323C16.2433 4.64709 16.2535 3.11709 17.6283 3.11709C18.1064 3.11709 23.935 5.90607 24.8047 5.90607C25.3073 5.90607 26.0829 4.74481 26.3963 4.38995L28.4409 2.01703C29.3704 0.905145 29.966 0.133715 30.5801 0L30.5806 0.00102857Z" fill="#6B2B8B"/>
<path fill-rule="evenodd" clip-rule="evenodd" d="M27.0885 26.5788L19.7144 27.2001C19.0507 27.4089 18.4443 27.9211 18.4443 28.7116C18.4443 29.7253 21.985 32.3985 22.871 33.118C23.3874 33.5377 23.9472 34.0951 24.479 34.4536C24.2832 34.8635 22.6849 41.2931 22.6849 41.8362C22.6849 42.6318 23.7146 43.4176 24.5444 43.2263C25.4632 43.0144 30.4124 39.3753 31.0034 39.3753C31.4825 39.3753 36.7466 43.0407 37.4629 43.2243C38.3597 43.4541 39.3219 42.6822 39.3219 41.8362C39.3219 40.5577 37.6909 35.5994 37.6909 34.4536C37.6909 34.2731 40.4585 32.0622 40.8307 31.7058C42.2137 30.381 43.5625 29.8888 43.5625 28.5475C43.5625 26.6688 39.8485 27.0417 37.3407 26.7671C34.52 26.458 35.6019 28.1161 32.6139 20.5298C32.1891 19.4508 32.0209 19.1963 30.8408 19.1963C29.6485 19.1963 29.2518 20.8831 28.6035 22.5242C28.2783 23.3471 27.1468 25.8815 27.0891 26.5794L27.0885 26.5788Z" fill="#6B2B8B"/>
<path fill-rule="evenodd" clip-rule="evenodd" d="M16.161 78.422C17.1493 78.422 16.8302 78.5743 17.7695 79.7571C18.2179 80.3218 20.7686 84 21.3801 84C22.3219 84 22.3919 83.1751 22.7069 82.2175L26.2521 71.0184C26.7071 69.5238 27.3979 67.9265 27.7409 66.4453C27.564 66.2021 24.0117 63.0001 23.9897 63.0001C22.3275 63.0001 18.6197 65.5371 15.6758 63.9804C15.1098 63.681 14.7207 63.1827 14.0407 63.0001C13.828 63.9186 13.4405 65.065 13.124 66.0154L10.226 74.9131C9.87275 75.9812 9.63143 76.8889 9.28989 77.9088C8.24842 81.0202 9.53428 80.3516 12.9195 79.2624C13.5647 79.0551 15.5295 78.4215 16.161 78.4215V78.422Z" fill="#6B2B8B"/>
<path fill-rule="evenodd" clip-rule="evenodd" d="M34.2654 66.2813L39.3005 82.0519C39.6318 83.0532 39.8981 83.8395 40.323 83.9995H40.6635C40.9616 83.9023 41.3307 83.5623 41.8144 82.8984L44.9521 78.834C45.7196 77.8712 46.1168 78.3752 48.3481 79.0207C54.3643 80.762 53.6377 80.7955 51.8989 75.2849C51.4464 73.8505 51.0405 72.5247 50.5956 71.1819C50.1437 69.818 49.726 68.394 49.2909 67.0805L47.9651 63.0001C47.438 63.1415 46.9374 63.7073 46.3377 63.9881C43.1857 65.4641 40.0316 63.102 38.2999 63.032C37.3627 62.9945 35.3933 65.9778 34.2644 66.2813H34.2654Z" fill="#6B2B8B"/>
</svg>
