<svg width="62" height="76" viewBox="0 0 62 76" fill="none" xmlns="http://www.w3.org/2000/svg">
<path fill-rule="evenodd" clip-rule="evenodd" d="M7.36057 3.89621C7.36057 4.29261 7.30906 4.816 7.3928 5.19463C7.57815 6.03292 7.94508 6.87642 8.55946 7.48914L8.9184 7.84052C8.99884 7.90852 9.06917 7.96846 9.15267 8.03244L9.79293 8.4331C9.97945 8.53782 10.0281 8.6018 10.2862 8.6018C10.2984 8.75036 10.3332 8.7705 10.3332 8.93446V11.6436C10.3332 11.882 9.4895 11.7862 9.05929 11.7862C8.00812 11.7862 1.37412 11.7265 1.10574 11.8069L0.337063 12.3158C0.245094 12.4352 0 12.7899 0 12.9269V24.8093C0 25.0979 0.0428091 25.1879 0.108434 25.413C0.176411 25.6462 0.111727 25.8627 0.188407 26.0928C0.256619 26.297 0.248387 26.1478 0.280611 26.3804C0.338474 26.8005 0.487835 27.1481 0.594387 27.5379L1.14361 28.8856C1.16314 28.9256 1.18054 28.9661 1.20453 29.0145L1.33061 29.2678C1.37507 29.3528 1.35013 29.3007 1.40117 29.3869C1.44916 29.468 1.41082 29.396 1.45292 29.4775L1.65379 29.8454C1.70084 29.9246 1.74365 29.9928 1.79986 30.0783L2.66851 31.2948C3.36169 32.1897 4.20987 32.8358 5.07076 33.5329L7.53016 34.8581C7.54122 34.8623 7.55392 34.8664 7.56521 34.8702C7.57697 34.8742 7.58991 34.8768 7.60214 34.8806L8.29767 35.1306C8.68977 35.2872 9.11527 35.3358 9.49679 35.4438C9.74165 35.513 9.94699 35.4706 10.1695 35.5267C11.0549 35.7502 12.1528 35.6469 13.0702 35.6469L13.5279 36.469C13.837 36.9912 14.2154 37.4445 14.5584 37.9499L15.1201 38.6673C15.129 38.6778 15.1549 38.7079 15.1638 38.7183C15.221 38.7849 15.2454 38.8104 15.2939 38.8723L16.0598 39.717C16.1632 39.8319 16.2277 39.9034 16.3375 40.0075L17.3584 40.9753C17.3657 40.982 17.3755 40.9919 17.3826 40.9986L20.681 43.3798C21.1519 43.6705 21.6461 43.8973 22.1292 44.1548C22.1292 44.5451 22.053 45.2229 22.1822 45.575L22.5258 46.5597C22.5303 46.5699 22.5352 46.5827 22.5397 46.5932L23.4453 47.8674C23.7362 48.1494 24.11 48.4098 24.4619 48.6019L25.1861 48.918C25.2724 48.9578 25.2771 48.9775 25.3851 49.0028C25.3691 49.1973 25.2976 49.3059 25.2442 49.4786L24.786 50.8706C24.7714 50.9265 24.7763 50.9421 24.7643 50.9914L23.5081 54.0986C23.4605 54.1982 23.5034 54.0986 23.4645 54.1972L21.8319 57.2582L20.0582 59.5115L18.9007 60.4367C18.8922 60.4424 18.8809 60.4502 18.8722 60.4557C18.8635 60.4611 18.852 60.4685 18.843 60.4739C18.5514 60.6516 18.2785 60.7407 17.9695 60.8772C17.5738 61.0521 16.7562 61.1238 16.326 61.1229C15.758 61.1217 13.3628 61.0712 12.9279 61.1222C12.6955 61.1492 12.8488 61.1397 12.6628 61.2354L12.5642 61.2788C12.2655 61.4207 12.0719 61.6766 11.9277 61.9685C11.8814 62.0624 11.9223 61.9771 11.8781 62.0612L11.653 63.2603C11.6488 63.4662 11.6488 63.7114 11.6217 63.8467C11.5768 64.0718 11.5222 64.1296 11.5119 64.354C11.4752 65.1527 11.398 65.1468 11.3733 65.4977C11.3508 65.8183 11.3646 66.0479 11.3037 66.3306C11.2757 66.4604 11.2515 66.4706 11.2362 66.5952C11.2139 66.7803 11.1908 67.0077 11.1838 67.1603C11.1671 67.5221 11.0579 67.8858 11.0414 68.2526C11.0273 68.5642 11.061 68.5429 10.9822 68.8108C10.8777 69.1667 10.9394 69.6264 10.8476 69.9586C10.7535 70.2995 10.8013 70.762 10.718 71.0639C10.5999 71.4918 10.6573 71.887 10.5809 72.209C10.44 72.8028 10.5252 72.899 10.4499 73.3129C10.4087 73.5399 10.3335 73.6534 10.3335 73.8609C10.3335 74.5499 10.2156 74.7494 10.5475 75.3565L10.8083 75.6643C10.8159 75.6707 10.8262 75.6799 10.8338 75.6863C10.8413 75.6925 10.8521 75.7015 10.8599 75.7076C11.0579 75.8628 11.2367 75.9784 11.4832 76H49.9803C50.3926 75.995 50.6337 75.9893 50.6589 75.9825C50.8654 75.9263 51.119 75.7579 51.273 75.6031C51.389 75.4868 51.667 75.0586 51.667 74.907C51.667 73.8839 51.7303 74.2128 51.5583 73.3529C51.5313 73.2176 51.5313 72.9724 51.5271 72.7665C51.5186 72.3526 51.3876 72.1945 51.3855 71.6733C51.3836 71.2449 51.2453 71.012 51.2436 70.5805C51.242 70.1419 51.1042 69.8903 51.102 69.4399C51.1002 69.0544 50.9614 68.7232 50.96 68.3474C50.9593 68.1476 50.9341 67.9872 50.9052 67.7846L50.7701 66.6848C50.7574 66.4343 50.7033 66.4249 50.6749 66.1628L50.5288 65.0265C50.4575 64.6836 50.5051 64.3976 50.3952 63.9252L50.1993 62.269C50.1809 62.1351 50.1304 62.0856 50.0725 61.9688C49.9845 61.7908 49.901 61.6316 49.7444 61.4913C49.2561 61.054 48.8795 61.1234 48.2221 61.1234C47.293 61.1234 44.9714 61.2544 44.0693 60.8862L43.0584 60.3837C42.9674 60.3176 42.9528 60.3102 42.8578 60.2531C42.7089 60.1638 42.6242 60.0962 42.5087 59.9868L42.3584 59.8529C42.2831 59.7944 42.241 59.7716 42.1709 59.7091L40.9807 58.3889C40.8749 58.2586 40.8206 58.1522 40.7227 58.0309C40.6799 57.978 40.695 58.0015 40.6587 57.9529L39.1809 55.5442C39.1275 55.4302 39.1388 55.4262 39.0779 55.3153L38.1523 53.3485C38.1259 53.2864 38.1269 53.2727 38.1017 53.2094L37.215 50.9182C37.1623 50.7509 37.1305 50.7846 37.095 50.6114L36.9734 50.211C36.9694 50.1996 36.9654 50.187 36.9619 50.1749L36.7737 49.5089C36.7137 49.3006 36.633 49.2182 36.6152 49.003C36.872 48.9429 37.3697 48.6851 37.6332 48.555C38.1521 48.2986 38.6674 47.8378 38.9908 47.3561L39.0889 47.2172C39.1357 47.1518 39.1395 47.1447 39.1856 47.077L39.5523 46.4008C39.6767 46.1003 39.8719 45.4999 39.8736 45.2035C39.8755 44.8552 39.871 44.5043 39.871 44.1553L40.591 43.7873C41.2263 43.4632 41.7976 43.0903 42.3925 42.7029C42.401 42.6974 42.4125 42.6896 42.4212 42.6842L42.7096 42.4991C42.7561 42.4638 42.7432 42.4728 42.7895 42.4373C43.2285 42.1013 43.689 41.7933 44.0997 41.4281L45.3717 40.2854C45.3786 40.2785 45.3884 40.2686 45.3953 40.2615L46.8802 38.6678C46.9227 38.6178 46.911 38.6316 46.9451 38.5906L47.4233 37.979C47.4983 37.867 47.5771 37.766 47.6632 37.6504L48.3439 36.6726C48.3441 36.6721 48.3841 36.6188 48.3846 36.6185C48.6139 36.3006 48.7849 35.9473 48.8668 35.821C48.9178 35.7423 48.9343 35.713 48.9776 35.6476C49.7122 35.6476 50.4618 35.6857 51.1954 35.6478L51.831 35.5274C52.0347 35.476 52.2504 35.5101 52.4663 35.4545L55.3145 34.4738C55.3277 34.4674 55.3674 34.4515 55.3806 34.4453L57.5507 33.0666C57.7022 32.9415 57.8042 32.8394 57.9567 32.7152C58.4459 32.316 58.8279 31.8648 59.2449 31.3988C59.3186 31.3166 59.2579 31.391 59.3315 31.2957L59.3915 31.2135C59.6321 30.9007 59.9205 30.5742 60.1101 30.2262C60.1152 30.2169 60.1213 30.2046 60.1265 30.1954L60.7769 29.0443C60.7821 29.0353 60.7891 29.0235 60.7943 29.0142L60.9756 28.6266C60.9801 28.6162 60.985 28.6036 60.9898 28.5932L61.244 27.994C61.4051 27.5289 61.6589 26.8337 61.7199 26.3821C61.7514 26.1485 61.7431 26.2994 61.8116 26.0942C61.8852 25.8736 61.8278 25.6497 61.8876 25.4104C61.948 25.168 62 25.0607 62 24.7631V13.0233C62 12.5482 61.4948 12.112 61.1135 11.9199C60.838 11.781 60.6576 11.787 60.3013 11.7874H52.2798C52.0431 11.7881 51.6665 11.8647 51.6665 11.6448V8.93564C51.6665 8.77168 51.7014 8.75154 51.7136 8.60298C52.0415 8.60298 52.3553 8.36391 52.6236 8.18882C52.6321 8.18337 52.6436 8.17555 52.6521 8.1701L53.3455 7.5851C53.397 7.53321 53.4189 7.51236 53.4641 7.46687L53.9011 6.90888C53.9067 6.90035 53.9143 6.88874 53.9199 6.88021C53.9255 6.87168 53.9335 6.8603 53.939 6.85201L53.9949 6.76577C54.1069 6.57764 54.1944 6.40941 54.285 6.20233L54.4974 5.5607C54.55 5.29841 54.6392 5.15577 54.6392 4.84799C54.6392 3.909 54.634 3.50739 54.3139 2.65655C54.2636 2.52292 54.2732 2.57338 54.2189 2.46724L53.3707 1.23018L52.9442 0.851792C52.4698 0.426725 51.5122 0 50.8645 0H11.1353C10.6818 0 10.3581 0.0940644 9.99521 0.277454C9.89383 0.328633 9.78658 0.380286 9.68167 0.436914C9.56312 0.501124 9.49185 0.559411 9.3933 0.621725C8.71329 1.04987 8.16289 1.67468 7.81195 2.40326C7.73033 2.57267 7.72657 2.53358 7.66329 2.72882L7.53204 3.0719C7.45725 3.32851 7.36057 3.6171 7.36057 3.89739V3.89621ZM22.1123 61.8103H39.9192L39.8983 61.7873L38.7081 60.4671C38.6714 60.4263 38.6408 60.3908 38.606 60.3479C38.5004 60.218 38.4101 60.0887 38.3167 59.9534C38.2795 59.9084 38.2436 59.8622 38.2083 59.8152C38.1478 59.7347 38.0996 59.6636 38.0469 59.5778L36.5691 57.1691C36.5048 57.0644 36.4552 56.9722 36.4032 56.8609C36.3759 56.8028 36.3503 56.7445 36.3258 56.6858C36.3186 56.6706 36.311 56.6552 36.3035 56.6391L35.3779 54.6723C35.3605 54.6351 35.3462 54.6031 35.3299 54.5654C35.2918 54.4761 35.258 54.3865 35.2267 54.2951L34.3743 52.0925C34.2708 51.8778 34.1915 51.6586 34.132 51.4269L34.0478 51.1502C34.037 51.1161 34.0264 51.0819 34.0163 51.0476C34.0137 51.0383 34.0113 51.0303 34.0087 51.0208L33.8488 50.4543C33.6907 50.0605 33.5915 49.6961 33.5555 49.2589C33.4329 47.775 34.3536 46.4413 35.7578 46.0326C35.9314 45.9603 36.1139 45.8601 36.2767 45.78C36.3235 45.7532 36.4141 45.6703 36.4479 45.6224C36.462 45.6013 36.474 45.584 36.4886 45.5634L36.5702 45.4478L36.7633 45.0914C36.7777 45.0502 36.7916 45.0076 36.8038 44.9659C36.8036 44.6953 36.8007 44.4247 36.8007 44.1543C36.8007 42.9599 37.4248 41.9364 38.4821 41.3962L39.2021 41.0282C39.7289 40.759 40.2299 40.4273 40.7258 40.1046C40.7411 40.0947 40.7564 40.0847 40.7716 40.0747L40.9485 39.9613C41.3089 39.6869 41.7224 39.4189 42.0561 39.1189L43.2341 38.0608L44.5786 36.6178L44.9559 36.1352C45.0283 36.0328 45.1029 35.9331 45.1782 35.8324L45.8297 34.8962C45.8495 34.8678 45.8666 34.8439 45.8873 34.8161C45.8963 34.8043 45.9052 34.7924 45.9139 34.7806C46.0506 34.5851 46.163 34.3335 46.2959 34.1288C46.3394 34.0615 46.3813 33.9935 46.4257 33.9267C47.0131 33.0427 47.9212 32.5541 48.9771 32.5541C49.596 32.5541 50.2259 32.5866 50.8452 32.5664L51.2133 32.4968C51.4111 32.4546 51.5972 32.4325 51.7929 32.4171L54.0272 31.6478L55.7315 30.565C55.8284 30.4799 55.9237 30.393 56.0246 30.3108C56.3424 30.0516 56.6472 29.6845 56.9234 29.3734C56.9372 29.3545 56.9499 29.3377 56.9645 29.3187C57.1033 29.1382 57.3032 28.919 57.423 28.7287C57.4345 28.7072 57.4462 28.6858 57.4582 28.6648L58.0691 27.5834L58.174 27.3592L58.3838 26.8647C58.4873 26.5762 58.6249 26.2165 58.6811 25.9383C58.7091 25.7383 58.7477 25.5488 58.8011 25.3663C58.8175 25.1306 58.8479 24.9048 58.91 24.6553C58.9163 24.6297 58.9229 24.6044 58.9297 24.579V14.879H52.3176C52.0252 14.8925 51.767 14.9003 51.469 14.8631C49.8377 14.6598 48.5963 13.3256 48.5963 11.6436V8.91385H38.225C37.3801 8.91385 36.6895 8.21796 36.6895 7.36759C36.6895 6.51722 37.3801 5.82133 38.225 5.82133H50.3646C50.5321 5.73911 50.7078 5.67182 50.8903 5.62088L51.2079 5.3529L51.3989 5.10909C51.409 5.09061 51.4186 5.07237 51.428 5.05365L51.5445 4.70227C51.5529 4.66886 51.5619 4.63569 51.5711 4.60252C51.5746 4.35303 51.5753 4.18859 51.5118 3.96018L51.0585 3.29889L50.9517 3.20411C50.8927 3.16644 50.7918 3.11882 50.7139 3.09133H11.2689C11.2428 3.10413 11.2164 3.11716 11.1906 3.13042C11.1344 3.16833 11.0784 3.20625 11.0205 3.24273C10.829 3.36334 10.6722 3.54791 10.5738 3.75168C10.5562 3.7884 10.5381 3.82465 10.5197 3.86067L10.4348 4.0822C10.4315 4.09334 10.4282 4.10424 10.4252 4.11538C10.4184 4.28431 10.408 4.45894 10.413 4.62005C10.4701 4.83851 10.5764 5.14392 10.7138 5.28585L10.9483 5.51544L11.1228 5.62467C11.3004 5.6749 11.4714 5.74101 11.6344 5.82109H23.7743C24.6192 5.82109 25.3098 6.51698 25.3098 7.36735C25.3098 8.21772 24.6192 8.91361 23.7743 8.91361H13.403V11.6434C13.403 13.6846 11.7619 14.8532 9.93194 14.8958C9.63651 14.9027 9.35049 14.8792 9.05882 14.8785C7.74327 14.8785 6.42654 14.8641 5.11051 14.8598C4.45779 14.8577 3.76061 14.8411 3.06955 14.8392V24.5977C3.14294 24.8638 3.17916 25.1071 3.19798 25.3637C3.25255 25.5504 3.29159 25.7436 3.31958 25.9468C3.35228 26.1039 3.41767 26.2897 3.47741 26.4698L3.95325 27.6369C3.95372 27.6379 3.95419 27.6388 3.95443 27.6395L4.02405 27.7796C4.02805 27.7864 4.03229 27.7931 4.03628 27.7999C4.07815 27.8682 4.11743 27.9378 4.15554 28.0099L4.31101 28.2944C4.31784 28.3053 4.32466 28.316 4.33148 28.3266L5.12062 29.4317C5.56118 29.9855 6.19767 30.4849 6.76477 30.9372L8.75822 32.0115L9.32885 32.2165C9.35849 32.2271 9.38412 32.2368 9.41211 32.2477C9.6184 32.3134 9.85926 32.3553 10.0895 32.4065C10.3713 32.4252 10.6265 32.4527 10.9156 32.5257C11.3879 32.6448 12.5659 32.5529 13.0697 32.5529C14.2103 32.5529 15.1892 33.1303 15.7474 34.1326L16.1828 34.9142C16.426 35.3177 16.7494 35.712 17.0251 36.1053L17.4877 36.696C17.5296 36.7448 17.571 36.7929 17.6119 36.842L18.3268 37.6303C18.3639 37.6712 18.4018 37.7163 18.442 37.7544L19.3384 38.6043L22.3694 40.7927C22.7518 41.0194 23.1733 41.2111 23.565 41.4198C24.5966 41.9695 25.1993 42.978 25.1993 44.1534C25.1993 44.3693 25.1769 44.6038 25.1748 44.8242L25.2863 45.144L25.7212 45.756C25.7581 45.7819 25.7962 45.8065 25.8332 45.829L26.4068 46.0795C26.4259 46.0878 26.4421 46.0951 26.4609 46.1036C26.4642 46.1053 26.4675 46.1067 26.4708 46.1081C27.745 46.5886 28.5602 47.8563 28.4445 49.258C28.4083 49.6959 28.309 50.051 28.1575 50.4522L27.764 51.648C27.7577 51.6774 27.7509 51.7065 27.7436 51.7359C27.7064 51.8868 27.6655 52.0131 27.6071 52.1572L26.3509 55.2644C26.3309 55.3137 26.3123 55.3568 26.2909 55.4027C26.254 55.4914 26.2156 55.5714 26.1683 55.6601L24.5357 58.7211C24.4454 58.8907 24.3555 59.0281 24.2368 59.1791L22.463 61.4323C22.3501 61.5757 22.24 61.6956 22.1123 61.8103ZM45.6185 64.2249H15.1118V64.192C14.9665 64.1882 14.8209 64.1849 14.6755 64.182C14.6642 64.2725 14.6499 64.3637 14.6313 64.4561C14.6118 64.5535 14.5894 64.6476 14.5645 64.7412C14.54 65.0966 14.4984 65.424 14.4309 65.7828C14.4029 66.2059 14.3987 66.5448 14.3036 66.9855C14.2907 67.0452 14.2766 67.1039 14.2613 67.1622C14.2566 67.2101 14.2526 67.2575 14.2502 67.3039C14.2317 67.7041 14.1491 68.036 14.107 68.4144C14.0879 68.8357 14.0743 69.1153 13.9753 69.5065C13.9435 69.9071 13.9381 70.2263 13.8457 70.6262C13.8083 71.0447 13.8059 71.3726 13.7001 71.7979C13.6627 72.1881 13.666 72.4973 13.5714 72.9063H48.454C48.3787 72.5189 48.3256 72.191 48.3164 71.7877C48.2451 71.3965 48.183 71.0812 48.1741 70.6741C48.108 70.2782 48.044 69.9631 48.0332 69.5558C47.968 69.1497 47.8949 68.8269 47.8897 68.3914C47.8834 68.3353 47.8737 68.2777 47.8657 68.2223C47.8627 68.2012 47.8603 68.1834 47.8577 68.1623L47.7251 67.0816C47.6815 66.9016 47.6488 66.7236 47.627 66.5358L47.4896 65.4672C47.4459 65.1712 47.447 64.921 47.4056 64.6279C47.3783 64.5106 47.3607 64.4092 47.3466 64.2896L47.3388 64.2247C46.7804 64.2341 46.1976 64.2446 45.6185 64.2249Z" fill="#6B2B8B"/>
<path fill-rule="evenodd" clip-rule="evenodd" d="M26.4236 55.0357C26.4236 55.0357 26.4596 54.9035 26.4612 54.8975C26.4622 54.8935 26.4704 54.8603 26.4638 54.8869C26.4629 54.8904 26.4622 54.894 26.4612 54.8975C26.4497 54.9437 26.4372 54.9899 26.4236 55.0357Z" fill="#CB2929"/>
<path fill-rule="evenodd" clip-rule="evenodd" d="M20.9497 22.0053C20.9497 22.7768 20.9718 22.438 21.084 23.0583C21.1214 23.2654 21.0757 23.1445 21.1567 23.318L21.219 23.4452C21.2571 23.5319 21.2084 23.4258 21.246 23.513C21.2505 23.5234 21.2554 23.5362 21.2599 23.5464C21.4039 23.8731 21.6323 24.193 21.8809 24.442L23.2576 25.8596C23.2642 25.8667 23.2741 25.8767 23.2809 25.8835L23.815 26.4387C23.8426 26.4714 23.8734 26.5074 23.904 26.5398C23.9599 26.5991 23.9289 26.5543 23.9992 26.637C24.1371 26.7993 24.078 26.9689 24.0503 27.1715C24.0296 27.3215 24.0359 27.6819 23.9828 27.8648C23.876 28.2321 23.876 28.8109 23.7922 29.1464C23.7341 29.3791 23.7403 29.5236 23.7351 29.8018C23.7297 30.084 23.6391 30.3119 23.6391 30.7983C23.6391 31.045 23.6502 30.8438 23.6998 31.0225C23.7435 31.181 23.7193 31.1516 23.7355 31.3191C23.7541 31.5094 23.8386 31.6361 23.9113 31.8074C23.9407 31.8766 23.9449 31.8757 23.9583 31.9025C24.2728 32.5308 24.8834 33.1942 25.5862 33.3994C26.4544 33.653 25.9202 33.5549 27.225 33.5549C27.3677 33.5549 27.3689 33.5217 27.4773 33.4764C27.6286 33.4132 27.5738 33.4459 27.7311 33.3994C27.9969 33.3212 28.2982 33.1492 28.5304 33.0163C28.5687 32.9945 28.6165 32.9725 28.6576 32.9542L30.0536 32.2692C30.0631 32.2643 30.0753 32.2579 30.0849 32.2531L30.6262 31.9897C30.6356 31.9844 30.6469 31.9771 30.6565 31.9719C30.9668 31.8058 31.1681 31.9231 31.4447 32.0607L33.5205 33.0592C33.5967 33.0969 33.599 33.0938 33.6517 33.117L34.0048 33.2843C34.8487 33.6385 34.8605 33.5549 35.9067 33.5549C36.0561 33.5549 36.0516 33.517 36.153 33.4703C36.4014 33.3566 36.5442 33.3682 36.8608 33.185C36.9224 33.1495 36.9991 33.1002 37.0602 33.0533L37.5782 32.577C37.6414 32.4969 37.661 32.4723 37.7254 32.3925L37.7675 32.3398C37.7736 32.332 37.7821 32.3209 37.7882 32.3131L38.102 31.7736C38.1217 31.7238 38.1203 31.716 38.1389 31.6681C38.1432 31.6572 38.1476 31.6444 38.1521 31.6338C38.3064 31.2528 38.3605 30.8315 38.3605 30.418C38.3605 30.1498 38.2659 30.1451 38.265 29.8013C38.2643 29.552 38.2544 29.3724 38.1947 29.1592L37.9886 27.8932C37.9559 27.6598 37.9693 27.4611 37.9343 27.2343C37.8879 26.9346 37.7849 26.9296 37.9724 26.7024L39.6775 24.9005C39.6843 24.8934 39.6942 24.8834 39.701 24.8765C39.7078 24.8697 39.7179 24.86 39.7247 24.8528C40.0068 24.569 40.3024 24.2707 40.516 23.9387L40.7105 23.6118C40.8872 23.253 40.8674 23.0976 40.9831 22.7931C41.2002 22.2219 40.9805 21.5044 40.7533 20.9732L40.3481 20.3359C40.3415 20.3285 40.3321 20.3183 40.3255 20.311C40.2678 20.2456 40.2455 20.2134 40.1975 20.1546C40.111 20.0487 40.0277 19.9714 39.9047 19.879C39.4429 19.5319 38.9278 19.2857 38.3466 19.2147L37.3719 19.0559C37.1668 19.0363 37.1886 18.9957 36.9598 18.9483C36.8455 18.9247 36.607 18.9337 36.4477 18.8939C36.2878 18.854 36.2055 18.7882 35.9996 18.7749C35.7009 18.7555 35.361 18.7827 35.1813 18.506L33.7331 15.8298C33.7018 15.7774 33.6647 15.7054 33.6324 15.6459C33.3467 15.1187 32.8918 14.6761 32.3635 14.4051C32.272 14.3581 32.2637 14.3515 32.1694 14.3153L31.2831 14.0674H30.717C30.47 14.0674 30.5408 14.1297 30.2943 14.1646L29.9344 14.2774C29.9238 14.2816 29.9111 14.2864 29.9003 14.2906L28.9919 14.8491C28.7553 15.0488 28.5537 15.3159 28.4013 15.585C28.3653 15.6485 28.3443 15.6952 28.302 15.7701C28.2554 15.8523 28.2446 15.8556 28.1945 15.9471L27.3527 17.5708C27.3508 17.5741 27.3101 17.6405 27.2988 17.6589C27.2779 17.694 27.2668 17.7132 27.2457 17.748L27.0507 18.1221C27.0015 18.2089 27.0481 18.1179 26.9989 18.2127C26.9933 18.2236 26.9575 18.301 26.9535 18.3096L26.8919 18.4375C26.7726 18.6737 26.7489 18.6012 26.4702 18.678C26.2479 18.7394 26.3403 18.7595 26.0458 18.7735C25.7403 18.7879 25.8155 18.8104 25.5883 18.883C25.4246 18.9353 25.3049 18.9052 25.1195 18.9334C24.9055 18.9661 24.8244 19.0287 24.6703 19.0512L23.7381 19.2054C23.6106 19.2187 23.6008 19.2182 23.4886 19.2391L23.0537 19.3713C22.9017 19.4142 22.9504 19.3997 22.8443 19.4454C22.707 19.5047 22.6192 19.5305 22.4851 19.6066C21.9249 19.9236 21.4798 20.4541 21.2183 21.0398L21.1891 21.1052C21.1094 21.2737 20.9497 21.8018 20.9497 22.0053ZM22.8817 22.1342C22.8817 22.17 22.8817 22.2058 22.8827 22.2413C22.9149 22.3662 22.9429 22.4892 22.968 22.6164C22.9744 22.6301 22.9807 22.6439 22.9873 22.659C23.0036 22.696 23.0193 22.733 23.0339 22.7706C23.0353 22.7742 23.0367 22.778 23.0381 22.7818C23.0868 22.8803 23.1703 22.9881 23.2439 23.0621C23.2505 23.0687 23.2559 23.0741 23.2625 23.0808L24.6407 24.5C24.651 24.5107 24.6599 24.5197 24.6686 24.5287L25.2028 25.0839C25.2341 25.1163 25.2597 25.145 25.2884 25.1791C25.351 25.2395 25.4098 25.3035 25.4677 25.3717C26.0075 26.0072 26.0752 26.6358 25.9687 27.4094C25.9419 27.7598 25.9423 28.0451 25.841 28.3998C25.7558 28.7787 25.7706 29.189 25.6709 29.6027C25.6664 29.6797 25.6685 29.7627 25.6671 29.839C25.6622 30.0956 25.6079 30.3418 25.5834 30.5849C25.6144 30.7097 25.6356 30.8294 25.6483 30.9533C25.6537 30.9649 25.6589 30.9765 25.6643 30.9884C25.6711 31.0012 25.6777 31.0139 25.6841 31.027C25.7565 31.172 25.9755 31.4693 26.1293 31.5321C26.2293 31.561 26.3326 31.5944 26.4363 31.6255C26.5929 31.6224 26.7491 31.617 26.906 31.6132C26.9992 31.58 27.0925 31.5523 27.192 31.53C27.308 31.4855 27.4651 31.3878 27.5764 31.3241C27.6627 31.2748 27.7514 31.231 27.8417 31.19L29.1878 30.5296C29.2064 30.5199 29.2252 30.5105 29.2443 30.5012L29.7265 30.2664C29.7342 30.2621 29.742 30.2579 29.7498 30.2538C30.6379 29.7783 31.4339 29.8878 32.288 30.3098L34.3536 31.3032C34.3769 31.3127 34.4004 31.3227 34.4235 31.3326C34.4416 31.3404 34.4566 31.3476 34.4745 31.3558L34.793 31.5065C34.8828 31.5449 34.9932 31.5928 35.0809 31.6165C35.2192 31.6276 35.3867 31.6236 35.5511 31.6181C35.6593 31.5783 35.7649 31.5454 35.8783 31.5058L36.1657 31.2416C36.1742 31.231 36.1829 31.2203 36.1913 31.2097L36.3454 30.9445C36.351 30.9298 36.3572 30.9142 36.3635 30.8988C36.4019 30.804 36.4186 30.6749 36.4251 30.5567C36.3635 30.3095 36.3341 30.0788 36.3334 29.807C36.3334 29.7646 36.3344 29.7148 36.3311 29.6712C36.3129 29.6044 36.3 29.5445 36.2885 29.4746L36.0824 28.2086C36.0801 28.1934 36.078 28.1806 36.0759 28.1655C36.0472 27.9603 36.0516 27.7572 36.029 27.5618C35.8199 26.7716 35.9545 26.1041 36.4875 25.4585C36.5169 25.4229 36.543 25.3935 36.5745 25.3599L38.2796 23.558C38.296 23.5404 38.313 23.5234 38.3299 23.5061C38.3419 23.494 38.3539 23.4822 38.3628 23.4734C38.5202 23.3151 38.7507 23.0952 38.8813 22.9019L38.9972 22.7071C39.0499 22.5436 39.0835 22.3863 39.1365 22.2209C39.1223 22.1231 39.076 21.9873 39.0332 21.8764L38.7949 21.5016C38.7756 21.4779 38.7566 21.4544 38.7373 21.4305C38.5545 21.2947 38.3438 21.176 38.1152 21.1481C38.0886 21.1448 38.0658 21.1417 38.0392 21.1372L37.1117 20.9863C36.9278 20.9637 36.7617 20.9256 36.5891 20.868C36.384 20.8524 36.1989 20.8379 35.9839 20.7841C35.8959 20.7621 35.8141 20.7363 35.7315 20.7079C34.8337 20.6342 34.1118 20.4138 33.5654 19.5732C33.5355 19.5272 33.5115 19.4869 33.4854 19.4386L32.0516 16.7889C32.012 16.7199 31.9754 16.65 31.9373 16.5799C31.8422 16.4046 31.6818 16.2461 31.5066 16.1508L31.0208 16.0151H30.935C30.8771 16.0316 30.8186 16.0463 30.7591 16.0591L30.7127 16.0736L30.1802 16.401C30.1416 16.4501 30.1038 16.5107 30.0819 16.5494C30.0489 16.61 30.0174 16.6726 29.9826 16.7344C29.9511 16.7898 29.9186 16.8434 29.8843 16.8967L29.0672 18.4728C29.0587 18.4894 29.0512 18.5031 29.0422 18.5195C29.0138 18.5711 28.9827 18.6197 28.9531 18.6685C28.9465 18.6794 28.9399 18.6908 28.9331 18.7022L28.7635 19.0277C28.7522 19.0493 28.7423 19.0675 28.7303 19.0886C28.7252 19.0979 28.7197 19.1071 28.7143 19.1163C28.7101 19.1253 28.7059 19.1346 28.7016 19.1436C28.6988 19.1495 28.6962 19.1547 28.6934 19.1609L28.6318 19.2888C28.6264 19.3 28.6217 19.3097 28.616 19.3208C28.2547 20.0366 27.7563 20.3979 26.998 20.5543C26.7468 20.6503 26.5193 20.6929 26.2566 20.7119C26.2293 20.7214 26.202 20.7306 26.174 20.7396C25.9047 20.8256 25.689 20.8484 25.427 20.8623C25.2762 20.91 25.1374 20.9495 24.9744 20.9751L24.0531 21.1277C24.0131 21.1343 23.9785 21.1391 23.9383 21.1431C23.9294 21.1441 23.9202 21.145 23.9113 21.1459L23.6142 21.2362C23.6066 21.2386 23.5996 21.2405 23.5925 21.2426C23.5349 21.267 23.4761 21.2893 23.4187 21.3137C23.2296 21.427 23.0706 21.6423 22.9824 21.8399L22.9535 21.9049C22.929 21.97 22.9015 22.0591 22.8834 22.1352L22.8817 22.1342Z" fill="#6B2B8B"/>
<path fill-rule="evenodd" clip-rule="evenodd" d="M26.3758 68.585L26.4897 69.0882C26.4939 69.0991 26.4984 69.1119 26.5024 69.1228C26.5861 69.3484 26.6165 69.4126 26.7642 69.5721C27.042 69.8723 27.0763 69.8507 27.3715 70.0059C27.474 70.0597 27.4933 70.1059 27.6498 70.1059H34.3498C34.5928 70.1059 35.29 69.69 35.485 69.1579L35.5102 69.088C35.7183 68.5423 35.6341 68.095 35.2545 67.5785C35.1258 67.4034 34.6714 67.0638 34.3971 67.0638H27.6025C27.4762 67.0638 27.2179 67.1918 27.125 67.2482C26.7117 67.4986 26.3758 68.0729 26.3758 68.585Z" fill="#6B2B8B"/>
<path fill-rule="evenodd" clip-rule="evenodd" d="M29.4901 6.98582C29.4901 7.89685 29.4164 7.61773 29.6512 8.10677C29.8608 8.54369 30.4241 8.88701 30.6697 8.88701C31.4901 8.88701 31.2539 8.95785 31.7425 8.73182L31.9191 8.62448C32.2016 8.4155 32.2792 8.24017 32.4277 7.9485C32.59 7.62958 32.549 7.00146 32.3442 6.6297C32.283 6.51881 32.1576 6.3648 32.0798 6.27809L31.7204 6.02219C31.2415 5.78217 31.4781 5.84473 30.717 5.84473C30.5949 5.84473 30.3279 5.97907 30.2115 6.04849L29.8271 6.37428L29.4901 6.98582Z" fill="#6B2B8B"/>
</svg>
